<svg xmlns="http://www.w3.org/2000/svg" viewBox="0 0 64 64" role="img" aria-label="Hafızlık Countdown">
  <rect width="64" height="64" rx="18" fill="#fffaf2"/>
  <rect x="5" y="5" width="54" height="54" rx="15" fill="none" stroke="#1f1a17" stroke-opacity=".16" stroke-width="2"/>
  <rect x="14" y="17" width="36" height="30" rx="5" fill="#f7f2e8" stroke="#1f1a17" stroke-width="2.4"/>
  <path d="M20 17v30M26 17v30M32 17v30M38 17v30M44 17v30M14 23h36M14 29h36M14 35h36M14 41h36" stroke="#1f1a17" stroke-opacity=".32" stroke-width="1.4"/>
  <rect x="14" y="35" width="6" height="6" fill="#5aab63"/>
  <rect x="20" y="35" width="6" height="6" fill="#5aab63"/>
  <rect x="26" y="35" width="6" height="6" fill="#5aab63"/>
  <rect x="32" y="35" width="6" height="6" fill="#d88f36"/>
  <rect x="38" y="35" width="6" height="6" fill="#4f83c8"/>
  <path d="M19 24h26" stroke="#9f1d1d" stroke-width="5" stroke-linecap="round"/>
  <path d="M32 19v18" stroke="#9f1d1d" stroke-width="5" stroke-linecap="round"/>
</svg>
