<svg xmlns="http://www.w3.org/2000/svg" viewBox="0 0 360 220" role="img" aria-label="Hafızlık Countdown">
  <rect width="360" height="220" rx="34" fill="#fffaf2"/>
  <rect x="12" y="12" width="336" height="196" rx="28" fill="none" stroke="#1f1a17" stroke-opacity=".12" stroke-width="3"/>
  <g transform="translate(54 44)">
    <rect x="0" y="0" width="150" height="124" rx="18" fill="#f7f2e8" stroke="#1f1a17" stroke-width="5"/>
    <path d="M25 0v124M50 0v124M75 0v124M100 0v124M125 0v124M0 25h150M0 50h150M0 75h150M0 100h150" stroke="#1f1a17" stroke-opacity=".28" stroke-width="3"/>
    <rect x="0" y="75" width="25" height="25" fill="#5aab63"/>
    <rect x="25" y="75" width="25" height="25" fill="#5aab63"/>
    <rect x="50" y="75" width="25" height="25" fill="#5aab63"/>
    <rect x="75" y="75" width="25" height="25" fill="#d88f36"/>
    <rect x="100" y="75" width="25" height="25" fill="#4f83c8"/>
    <rect x="125" y="75" width="25" height="25" fill="#8b5fd3"/>
  </g>
  <g transform="translate(224 48)">
    <circle cx="45" cy="45" r="45" fill="#9f1d1d"/>
    <path d="M22 45h46M45 22v46" stroke="#fffaf2" stroke-width="15" stroke-linecap="round"/>
    <path d="M20 78h50" stroke="#5aab63" stroke-width="10" stroke-linecap="round"/>
  </g>
  <text x="224" y="166" fill="#1f1a17" font-family="Georgia, serif" font-size="28" font-weight="700">Countdown</text>
</svg>
